<mxfile host="app.diagrams.net" modified="2023-08-22T10:05:44.789Z" agent="Mozilla/5.0 (Macintosh; Intel Mac OS X 10.15; rv:109.0) Gecko/20100101 Firefox/116.0" etag="aakvbwGwcpf9oZCy96aR" version="21.6.8">
  <diagram name="Fig-1" id="W5h1FC-y1tdI-noMdm_y">
    <mxGraphModel dx="712" dy="461" grid="1" gridSize="10" guides="1" tooltips="1" connect="1" arrows="1" fold="1" page="0" pageScale="1" pageWidth="827" pageHeight="1169" math="0" shadow="0">
      <root>
        <mxCell id="88yhg96iL_U2UTGS-qJR-0" />
        <mxCell id="88yhg96iL_U2UTGS-qJR-1" parent="88yhg96iL_U2UTGS-qJR-0" />
        <mxCell id="88yhg96iL_U2UTGS-qJR-3" style="edgeStyle=orthogonalEdgeStyle;rounded=0;orthogonalLoop=1;jettySize=auto;html=1;exitX=0.5;exitY=1;exitDx=0;exitDy=0;entryX=0.5;entryY=0;entryDx=0;entryDy=0;endArrow=blockThin;endFill=1;" parent="88yhg96iL_U2UTGS-qJR-1" source="88yhg96iL_U2UTGS-qJR-4" target="88yhg96iL_U2UTGS-qJR-7" edge="1">
          <mxGeometry relative="1" as="geometry" />
        </mxCell>
        <mxCell id="88yhg96iL_U2UTGS-qJR-4" value="&lt;div style=&quot;font-size: 22px&quot;&gt;&lt;div style=&quot;font-size: 16px&quot;&gt;&lt;font style=&quot;font-size: 22px&quot;&gt;Video Game Content&lt;/font&gt;&lt;/div&gt;&lt;div style=&quot;font-size: 16px&quot;&gt;&lt;i&gt;(non-player character, weapons, levels, ...)&lt;/i&gt;&lt;/div&gt;&lt;/div&gt;" style="rounded=0;whiteSpace=wrap;html=1;align=left;verticalAlign=top;spacingTop=0;spacingLeft=8;fontSize=22;fontFamily=Roboto;fontSource=https%3A%2F%2Ffonts.googleapis.com%2Fcss%3Ffamily%3DRoboto;" parent="88yhg96iL_U2UTGS-qJR-1" vertex="1">
          <mxGeometry x="70" y="320" width="470" height="110" as="geometry" />
        </mxCell>
        <mxCell id="88yhg96iL_U2UTGS-qJR-5" value="&lt;div style=&quot;font-size: 16px&quot;&gt;&lt;font style=&quot;font-size: 22px&quot;&gt;Libraries&lt;/font&gt;&lt;i&gt; (OpenGL, Vulkan, OGRE, Bullet, ...)&lt;/i&gt;&lt;br style=&quot;font-size: 16px&quot;&gt;&lt;/div&gt;" style="rounded=0;whiteSpace=wrap;html=1;align=left;verticalAlign=top;spacingTop=0;spacingLeft=8;fontSize=16;fontFamily=Roboto;fontSource=https%3A%2F%2Ffonts.googleapis.com%2Fcss%3Ffamily%3DRoboto;" parent="88yhg96iL_U2UTGS-qJR-1" vertex="1">
          <mxGeometry x="70" y="530" width="470" height="40" as="geometry" />
        </mxCell>
        <mxCell id="88yhg96iL_U2UTGS-qJR-6" style="edgeStyle=orthogonalEdgeStyle;rounded=0;orthogonalLoop=1;jettySize=auto;html=1;exitX=0.5;exitY=1;exitDx=0;exitDy=0;entryX=0.5;entryY=0;entryDx=0;entryDy=0;endArrow=blockThin;endFill=1;" parent="88yhg96iL_U2UTGS-qJR-1" source="88yhg96iL_U2UTGS-qJR-7" target="88yhg96iL_U2UTGS-qJR-5" edge="1">
          <mxGeometry relative="1" as="geometry" />
        </mxCell>
        <mxCell id="88yhg96iL_U2UTGS-qJR-7" value="&lt;div style=&quot;font-size: 22px&quot;&gt;&lt;div style=&quot;font-size: 16px&quot;&gt;&lt;font style=&quot;font-size: 22px&quot;&gt;Game Engine&lt;/font&gt;&lt;/div&gt;&lt;div style=&quot;font-size: 16px&quot;&gt;&lt;i&gt;(Unreal, Unity, CryEngine, &lt;/i&gt;&lt;i&gt;&lt;span&gt;O3DE, &lt;/span&gt;...)&lt;/i&gt;&lt;/div&gt;&lt;/div&gt;" style="rounded=0;whiteSpace=wrap;html=1;align=left;verticalAlign=top;spacingTop=0;spacingLeft=8;fontSize=22;fontFamily=Roboto;fontSource=https%3A%2F%2Ffonts.googleapis.com%2Fcss%3Ffamily%3DRoboto;" parent="88yhg96iL_U2UTGS-qJR-1" vertex="1">
          <mxGeometry x="70" y="450" width="470" height="60" as="geometry" />
        </mxCell>
        <mxCell id="88yhg96iL_U2UTGS-qJR-8" value="Code" style="rounded=0;whiteSpace=wrap;html=1;fontSize=16;fontFamily=Roboto;fontSource=https%3A%2F%2Ffonts.googleapis.com%2Fcss%3Ffamily%3DRoboto;" parent="88yhg96iL_U2UTGS-qJR-1" vertex="1">
          <mxGeometry x="80" y="380" width="150" height="40" as="geometry" />
        </mxCell>
        <mxCell id="88yhg96iL_U2UTGS-qJR-9" value="Software Models" style="rounded=0;whiteSpace=wrap;html=1;fontSize=16;fontFamily=Roboto;fontSource=https%3A%2F%2Ffonts.googleapis.com%2Fcss%3Ffamily%3DRoboto;" parent="88yhg96iL_U2UTGS-qJR-1" vertex="1">
          <mxGeometry x="240" y="380" width="150" height="40" as="geometry" />
        </mxCell>
        <mxCell id="88yhg96iL_U2UTGS-qJR-10" value="Graphics Engine" style="rounded=0;whiteSpace=wrap;html=1;fontSize=16;fontFamily=Roboto;fontSource=https%3A%2F%2Ffonts.googleapis.com%2Fcss%3Ffamily%3DRoboto;" parent="88yhg96iL_U2UTGS-qJR-1" vertex="1">
          <mxGeometry x="360" y="460" width="80" height="40" as="geometry" />
        </mxCell>
        <mxCell id="88yhg96iL_U2UTGS-qJR-11" value="Physics Engine" style="rounded=0;whiteSpace=wrap;html=1;fontSize=16;fontFamily=Roboto;fontSource=https%3A%2F%2Ffonts.googleapis.com%2Fcss%3Ffamily%3DRoboto;spacing=2;" parent="88yhg96iL_U2UTGS-qJR-1" vertex="1">
          <mxGeometry x="450" y="460" width="80" height="40" as="geometry" />
        </mxCell>
        <mxCell id="88yhg96iL_U2UTGS-qJR-12" value="Assets" style="rounded=0;whiteSpace=wrap;html=1;labelPosition=center;verticalLabelPosition=middle;align=left;verticalAlign=top;spacingLeft=8;spacingTop=2;fontSize=16;fontFamily=Roboto;fontSource=https%3A%2F%2Ffonts.googleapis.com%2Fcss%3Ffamily%3DRoboto;" parent="88yhg96iL_U2UTGS-qJR-1" vertex="1">
          <mxGeometry x="400" y="330" width="130" height="90" as="geometry" />
        </mxCell>
        <mxCell id="88yhg96iL_U2UTGS-qJR-13" value="Prefabs" style="rounded=0;whiteSpace=wrap;html=1;fontFamily=Roboto;fontSource=https%3A%2F%2Ffonts.googleapis.com%2Fcss%3Ffamily%3DRoboto;" parent="88yhg96iL_U2UTGS-qJR-1" vertex="1">
          <mxGeometry x="410" y="360" width="50" height="20" as="geometry" />
        </mxCell>
        <mxCell id="88yhg96iL_U2UTGS-qJR-14" value="Shaders" style="rounded=0;whiteSpace=wrap;html=1;fontFamily=Roboto;fontSource=https%3A%2F%2Ffonts.googleapis.com%2Fcss%3Ffamily%3DRoboto;" parent="88yhg96iL_U2UTGS-qJR-1" vertex="1">
          <mxGeometry x="410" y="390" width="50" height="20" as="geometry" />
        </mxCell>
        <mxCell id="88yhg96iL_U2UTGS-qJR-15" value="Meshes" style="rounded=0;whiteSpace=wrap;html=1;fontFamily=Roboto;fontSource=https%3A%2F%2Ffonts.googleapis.com%2Fcss%3Ffamily%3DRoboto;" parent="88yhg96iL_U2UTGS-qJR-1" vertex="1">
          <mxGeometry x="470" y="360" width="50" height="20" as="geometry" />
        </mxCell>
        <mxCell id="88yhg96iL_U2UTGS-qJR-16" value="&lt;div&gt;...&lt;/div&gt;" style="rounded=0;whiteSpace=wrap;html=1;fontFamily=Roboto;fontSource=https%3A%2F%2Ffonts.googleapis.com%2Fcss%3Ffamily%3DRoboto;" parent="88yhg96iL_U2UTGS-qJR-1" vertex="1">
          <mxGeometry x="470" y="390" width="50" height="20" as="geometry" />
        </mxCell>
      </root>
    </mxGraphModel>
  </diagram>
</mxfile>
